<?xml version="1.0" encoding="UTF-8"?>
<svg xmlns="http://www.w3.org/2000/svg" xmlns:xlink="http://www.w3.org/1999/xlink" width="628.3pt" height="105.5pt" viewBox="0 0 628.3 105.5" version="1.1">
<defs>
<clipPath id="clip1">
  <path d="M 205 15 L 251 15 L 251 105.5 L 205 105.5 Z M 205 15 "/>
</clipPath>
</defs>
<g id="surface1">
<path style=" stroke:none;fill-rule:evenodd;fill:rgb(34.521484%,34.910583%,32.151794%);fill-opacity:1;" d="M 0.0390625 15.777344 C 21.585938 15.777344 43.128906 15.777344 64.671875 15.777344 C 94.691406 15.777344 111.914063 27.019531 112.171875 42.4375 C 112.433594 58.136719 100.28125 73.476563 64.671875 73.476563 L 41.0625 73.476563 L 41.0625 105.5 L 0.0390625 105.5 Z M 435.773438 15.777344 C 464.085938 15.777344 487.773438 26.464844 493.777344 48.929688 L 453.464844 50.9375 C 451.46875 41.394531 446.003906 34.640625 435.773438 34.640625 C 422.421875 34.640625 417.1875 46.152344 417.1875 60.347656 C 417.1875 74.539063 421.960938 86.050781 435.773438 86.050781 C 445.78125 86.050781 451.046875 80.015625 453.183594 71.292969 L 493.382813 73.734375 C 486.789063 95.257813 463.492188 105.5 435.773438 105.5 C 402.933594 105.5 376.300781 90.453125 376.300781 60.636719 C 376.300781 30.828125 402.933594 15.777344 435.773438 15.777344 Z M 563.796875 15.777344 C 599.421875 15.777344 628.3125 30.152344 628.3125 60.636719 C 628.3125 91.121094 599.421875 105.5 563.796875 105.5 C 528.171875 105.5 499.28125 90.453125 499.28125 60.636719 C 499.28125 30.828125 528.171875 15.777344 563.796875 15.777344 Z M 563.796875 34.640625 C 578.285156 34.640625 583.960938 46.152344 583.960938 60.347656 C 583.960938 74.539063 578.789063 86.050781 563.796875 86.050781 C 548.808594 86.050781 543.636719 74.539063 543.636719 60.347656 C 543.636719 46.152344 549.308594 34.640625 563.796875 34.640625 Z M 227.53125 -0.046875 C 239.546875 -0.046875 249.378906 6.941406 250.160156 15.777344 C 269.324219 15.777344 288.488281 15.777344 307.65625 15.777344 L 330.679688 62.167969 L 330.679688 15.777344 L 371.703125 15.777344 L 371.703125 105.5 L 317.117188 105.5 L 282.992188 36.746094 L 282.992188 105.5 L 169.3125 105.5 L 169.3125 88.066406 L 127.828125 88.066406 L 111.628906 105.5 L 70.601563 105.5 L 154.007813 15.777344 C 170.972656 15.777344 187.9375 15.777344 204.902344 15.777344 C 205.691406 6.941406 215.523438 -0.046875 227.53125 -0.046875 Z M 169.3125 69.921875 L 144.695313 69.921875 L 169.3125 43.441406 Z M 59.953125 35.550781 L 41.0625 35.550781 L 41.0625 53.707031 L 59.953125 53.707031 C 75.003906 53.707031 74.410156 35.550781 59.953125 35.550781 Z M 59.953125 35.550781 "/>
<g clip-path="url(#clip1)" clip-rule="nonzero">
<path style=" stroke:none;fill-rule:evenodd;fill:rgb(94.139099%,48.631287%,0%);fill-opacity:1;" d="M 208.175781 50.769531 L 247.492188 40.691406 L 247.492188 105.5 L 208.175781 105.5 Z M 250.464844 15.777344 C 250.496094 16.15625 250.515625 16.539063 250.515625 16.921875 C 250.515625 26.292969 240.359375 33.890625 227.839844 33.890625 C 215.3125 33.890625 205.152344 26.292969 205.152344 16.921875 C 205.152344 16.539063 205.171875 16.15625 205.210938 15.777344 Z M 250.464844 15.777344 "/>
</g>
</g>
</svg>
